<svg xmlns="http://www.w3.org/2000/svg" width="342.863" height="280.047" xmlns:v="https://vecta.io/nano"><style><![CDATA[.B{fill:#e0e0e0}.C{font-family:sans-serif}]]></style><text x="88.261" y="202.431" font-size="80" class="B C">C++</text><text x="109.42" y="90.733" font-size="32.892" class="B C">C</text><text x="133.363" y="92.456" font-size="56.644" class="B C">Python</text><text x="226.344" y="134.632" font-size="30" class="B C">Go</text><text x="146.246" y="209.445" font-size="25.164" class="B C">opencv</text><text x="63.769" y="144.093" font-size="20.484" class="B C">nlohmann-json</text><text x="93.569" y="121.053" font-size="19.457" class="B C">gtest</text><text x="198.07" y="153.738" font-size="18.345" class="B C">emscripten</text><text x="163.975" y="225.837" font-size="18.089" class="B C">spdlog</text><text x="132.675" y="224.273" font-size="17.657" class="B C">fmt</text><text x="54.737" y="104.522" font-size="16.816" class="B C">onnxruntime</text><text x="239.798" y="170.345" font-size="16.368" class="B C">TensorRT</text><text x="132.763" y="239.824" font-size="16.305" class="B C">taskflow</text><text x="86.617" y="213.514" font-size="16.057" class="B C">conan</text><text x="59.077" y="164.29" font-size="15.627" class="B C">asio</text><text x="145.291" y="254.035" font-size="15.614" class="B C">magic_enum</text><text x="25.317" y="180.72" font-size="15.536" class="B C">range-v3</text><text x="247.623" y="187.527" font-size="15.307" class="B C">embree</text><text x="107.953" y="229.372" font-size="15.221" class="B C">mio</text><text x="11.665" y="195.518" font-size="15.195" class="B C">tl-expected</text><text x="240.014" y="202.346" font-size="15.183" class="B C">nanobench</text><text x="228.424" y="216.673" font-size="15.17" class="B C">boost-pfr</text><text x="10" y="63.369" font-size="15.17" class="B C">boost-typeerasure</text><text x="37.36" y="126.1" font-size="15.163" class="B C">boost-ut</text><text x="48.071" y="89.466" font-size="15.15" class="B C">boost-di</text><text x="195.497" y="240.41" font-size="15.135" class="B C">mp-units</text><text x="104.615" y="269.447" font-size="15.063" class="B C">json-schema-validator</text><text x="272.689" y="138.853" font-size="15.058" class="B C">boost-te</text><text x="95.701" y="50.004" font-size="17.817" class="B C">raylib</text><text x="138.547" y="120.96" font-size="16.704" class="B C">glfw</text><text x="73.444" y="77.179" font-size="16.207" class="B C">SDL</text><text x="95.787" y="33.677" font-size="15.896" class="B C">CMake</text><text x="86.79" y="20.4" font-size="15.304" class="B C">gstreamer</text><text x="147.514" y="47.248" font-size="25.69" class="B C">pytorch</text><text x="202.734" y="110.266" font-size="20.653" class="B C">pandas</text><text x="168.572" y="127.018" font-size="18.596" class="B C">numpy</text><text x="159.31" y="27.235" font-size="17.606" class="B C">matplotlib</text><text x="247.578" y="57.373" font-size="15.218" class="B C">mavlink</text><text x="267.321" y="121.987" font-size="17.347" class="B C">casbin</text><text x="299.562" y="104.586" font-size="16.612" class="B C">sqlc</text><text x="293.623" y="151.048" font-size="16.041" class="B C">templ</text></svg>
